<?xml version="1.0" encoding="UTF-8" standalone="no"?>
<!-- Generator: Adobe Illustrator 19.1.0, SVG Export Plug-In . SVG Version: 6.00 Build 0)  -->

<svg
   xmlns:dc="http://purl.org/dc/elements/1.1/"
   xmlns:cc="http://creativecommons.org/ns#"
   xmlns:rdf="http://www.w3.org/1999/02/22-rdf-syntax-ns#"
   xmlns:svg="http://www.w3.org/2000/svg"
   xmlns="http://www.w3.org/2000/svg"
   xmlns:sodipodi="http://sodipodi.sourceforge.net/DTD/sodipodi-0.dtd"
   xmlns:inkscape="http://www.inkscape.org/namespaces/inkscape"
   version="1.1"
   id="Capa_1"
   x="0px"
   y="0px"
   viewBox="0 0 481.6 481.6"
   style="enable-background:new 0 0 481.6 481.6;"
   xml:space="preserve"
   width="512px"
   height="512px"
   inkscape:version="0.91 r13725"
   sodipodi:docname="icon-share-white.svg"><metadata
     id="metadata41"><rdf:RDF><cc:Work
         rdf:about=""><dc:format>image/svg+xml</dc:format><dc:type
           rdf:resource="http://purl.org/dc/dcmitype/StillImage" /><dc:title></dc:title></cc:Work></rdf:RDF></metadata><defs
     id="defs39" /><sodipodi:namedview
     pagecolor="#ffffff"
     bordercolor="#666666"
     borderopacity="1"
     objecttolerance="10"
     gridtolerance="10"
     guidetolerance="10"
     inkscape:pageopacity="0"
     inkscape:pageshadow="2"
     inkscape:window-width="832"
     inkscape:window-height="480"
     id="namedview37"
     showgrid="false"
     inkscape:zoom="0.4609375"
     inkscape:cx="6.5084746"
     inkscape:cy="256"
     inkscape:window-x="0"
     inkscape:window-y="23"
     inkscape:window-maximized="0"
     inkscape:current-layer="Capa_1" /><g
     id="g3"
     style="fill:#ffffff;fill-opacity:1"><path
       d="M381.6,309.4c-27.7,0-52.4,13.2-68.2,33.6l-132.3-73.9c3.1-8.9,4.8-18.5,4.8-28.4c0-10-1.7-19.5-4.9-28.5l132.2-73.8   c15.7,20.5,40.5,33.8,68.3,33.8c47.4,0,86.1-38.6,86.1-86.1S429,0,381.5,0s-86.1,38.6-86.1,86.1c0,10,1.7,19.6,4.9,28.5   l-132.1,73.8c-15.7-20.6-40.5-33.8-68.3-33.8c-47.4,0-86.1,38.6-86.1,86.1s38.7,86.1,86.2,86.1c27.8,0,52.6-13.3,68.4-33.9   l132.2,73.9c-3.2,9-5,18.7-5,28.7c0,47.4,38.6,86.1,86.1,86.1s86.1-38.6,86.1-86.1S429.1,309.4,381.6,309.4z M381.6,27.1   c32.6,0,59.1,26.5,59.1,59.1s-26.5,59.1-59.1,59.1s-59.1-26.5-59.1-59.1S349.1,27.1,381.6,27.1z M100,299.8   c-32.6,0-59.1-26.5-59.1-59.1s26.5-59.1,59.1-59.1s59.1,26.5,59.1,59.1S132.5,299.8,100,299.8z M381.6,454.5   c-32.6,0-59.1-26.5-59.1-59.1c0-32.6,26.5-59.1,59.1-59.1s59.1,26.5,59.1,59.1C440.7,428,414.2,454.5,381.6,454.5z"
       fill="#a3a3a3"
       id="path5"
       style="fill:#ffffff;fill-opacity:1" /></g><g
     id="g7" /><g
     id="g9" /><g
     id="g11" /><g
     id="g13" /><g
     id="g15" /><g
     id="g17" /><g
     id="g19" /><g
     id="g21" /><g
     id="g23" /><g
     id="g25" /><g
     id="g27" /><g
     id="g29" /><g
     id="g31" /><g
     id="g33" /><g
     id="g35" /></svg>